#!OML:ASF Z:\Project 1\Capture day 1\Session 1\Male1.ASF
:FULLY-SPECIFIED
:DEGREES
1136
root 24.29 16.5381 -5.64749 -166.866 39.7159 -181.205
lowerback -1.96071 -2.72838 0.405477
upperback -1.17503 -3.63049 0.152133
thorax -0.121364 -1.81105 -0.136221
lowerneck -22.4552 -0.323972 -3.84696
upperneck 3.62513 0.724363 1.91951
head 4.58969 0.548505 1.30168
rclavicle 3.07122e-014 -2.47984e-014
rhumerus 79.9818 -2.63469 -52.2503
rradius 35.4076
rwrist 28.5079
rhand -40.67 45.947
rfingers 7.12502
rthumb -13.6136 16.4121
lclavicle 3.07122e-014 -2.47984e-014
lhumerus 95.5204 -1.32939 65.6199
lradius 16.5324
lwrist -47.2907
lhand -48.8588 75.6133
lfingers 7.12502
lthumb -21.4934 255.559
rfemur -23.7991 -5.66804 23.0865
rtibia 21.1511
rfoot -13.3481 -1.91432
rtoes -2.86333
lfemur 14.9065 2.00008 -14.704
ltibia 3.18055e-014
lfoot 12.8615 1.98971
ltoes 40.2669
1137
root 24.2957 16.5374 -5.65314 -167.003 39.7884 -181.152
lowerback -1.93216 -2.7064 0.386916
upperback -1.1431 -3.60127 0.0714694
thorax -0.108505 -1.79674 -0.207137
lowerneck -21.9656 -0.448979 -4.06596
upperneck 3.68798 0.559299 2.10832
head 4.54189 0.466405 1.37745
rclavicle -1.03492e-014 -4.01545e-014
rhumerus 79.5012 -2.9708 -52.2594
rradius 36.5715
rwrist 28.2012
rhand -41.2486 46.4542
rfingers 7.12502
rthumb -14.1711 16.9575
lclavicle -1.03492e-014 -4.01545e-014
lhumerus 95.5366 -0.901498 63.8095
lradius 16.6153
lwrist -46.0817
lhand -51.7217 72.3072
lfingers 7.12502
lthumb -24.2407 259.205
rfemur -23.609 -5.46602 23.094
rtibia 21.2058
rfoot -13.2801 -1.97802
rtoes -3.5445
lfemur 15.117 2.03102 -14.59
ltibia -6.04305e-014
lfoot 13.1681 1.82603
ltoes 40.6684
1138
root 24.2995 16.5378 -5.65936 -167.134 39.8033 -181.112
lowerback -1.93187 -2.73159 0.341941
upperback -1.05485 -3.6358 0.0616311
thorax -0.016362 -1.81417 -0.195638
lowerneck -21.8693 -0.442843 -4.50372
upperneck 3.89719 0.635832 2.40822
head 4.58973 0.50926 1.54991
rclavicle 9.05713e-014 -4.87022e-015
rhumerus 79.1287 -3.3136 -52.3397
rradius 37.6086
rwrist 28.2421
rhand -41.7192 46.9154
rfingers 7.12502
rthumb -14.6246 17.4511
lclavicle 9.05713e-014 -4.87022e-015
lhumerus 95.6037 -0.364622 62.4428
lradius 16.6244
lwrist -45.1912
lhand -51.5286 71.7172
lfingers 7.12502
lthumb -24.0555 259.77
rfemur -23.4101 -5.48243 23.1461
rtibia 21.1978
rfoot -13.2537 -2.2536
rtoes -8.39999
lfemur 15.2621 2.00461 -14.4722
ltibia 2.22639e-014
lfoot 13.4848 1.56507
ltoes 41.1
1139
root 24.3015 16.5389 -5.66533 -167.158 39.6476 -180.993
lowerback -2.01436 -2.79747 0.347013
upperback -0.922295 -3.72662 0.149804
thorax 0.170469 -1.85972 -0.119156
lowerneck -21.6238 -0.553616 -4.87406
upperneck 3.91753 0.545548 2.62445
head 4.56188 0.468411 1.66717
rclavicle 1.83379e-014 -5.1684e-015
rhumerus 78.6946 -3.71118 -51.6954
rradius 39.5816
rwrist 28.2449
rhand -42.3509 47.352
rfingers 7.12502
rthumb -15.2332 17.9328
lclavicle 1.83379e-014 -5.1684e-015
lhumerus 95.8161 -0.208645 62.9118
lradius 16.3956
lwrist -45.6279
lhand -48.8669 71.514
lfingers 7.12502
lthumb -21.5012 259.659
rfemur -23.263 -5.7057 23.3109
rtibia 21.1577
rfoot -13.3339 -1.91655
rtoes -3.47249
lfemur 15.264 1.84203 -14.3041
ltibia 0
lfoot 13.9109 0.898625
ltoes 40.0148
1140
root 24.3052 16.5421 -5.66902 -167.143 39.4765 -180.945
lowerback -2.15529 -2.85611 0.287715
upperback -0.798579 -3.80637 0.216225
thorax 0.383922 -1.89948 -0.0322923
lowerneck -21.2227 -0.826912 -5.392
upperneck 4.0338 0.220808 3.21177
head 4.55158 0.329893 1.90299
rclavicle 9.93923e-016 -2.88238e-015
rhumerus 78.3762 -4.38285 -51.5991
rradius 41.1875
rwrist 28.1797
rhand -43.1426 47.6431
rfingers 7.12502
rthumb -15.9957 18.2835
lclavicle 9.93923e-016 -2.88238e-015
lhumerus 96.188 -0.446066 65.0841
lradius 16.0305
lwrist -47.4488
lhand -49.3271 67.6398
lfingers 7.12502
lthumb -21.9431 263.585
rfemur -23.2312 -5.8699 23.3982
rtibia 21.1581
rfoot -13.3681 -1.88769
rtoes -5.69975
lfemur 15.2088 1.6538 -14.1606
ltibia -3.81667e-014
lfoot 14.2115 0.28419
ltoes 39.5091
1141
root 24.3081 16.5442 -5.67089 -167.203 39.3806 -180.987
lowerback -2.20597 -2.862 0.130103
upperback -0.672552 -3.81336 0.260548
thorax 0.554577 -1.90326 0.0929822
lowerneck -21.236 -0.853073 -5.52211
upperneck 4.3377 0.206519 3.18968
head 4.6499 0.310384 1.91653
rclavicle -2.68856e-014 2.71341e-014
rhumerus 77.8864 -5.047 -50.8489
rradius 43.4555
rwrist 28.0439
rhand -43.5686 48.4863
rfingers 7.12502
rthumb -16.4059 19.1601
lclavicle -2.68856e-014 2.71341e-014
lhumerus 96.6566 -0.898193 67.9321
lradius 15.6597
lwrist -49.5266
lhand -49.9784 61.2942
lfingers 7.12502
lthumb -22.5684 89.995
rfemur -23.183 -5.91177 23.386
rtibia 21.1732
rfoot -13.3643 -1.91621
rtoes -5.96355
lfemur 15.2393 1.5118 -14.0607
ltibia 5.08889e-014
lfoot 14.3563 -0.0836483
ltoes 40.19
1142
root 24.3091 16.541 -5.67138 -167.301 39.2881 -180.997
lowerback -2.14707 -2.88271 -0.000817074
upperback -0.548981 -3.84024 0.28487
thorax 0.658484 -1.91748 0.188711
lowerneck -20.7702 -0.700275 -5.11881
upperneck 4.10963 0.320567 2.76694
head 4.50375 0.34218 1.72553
rclavicle -4.54347e-014 -2.71341e-014
rhumerus 77.511 -5.69596 -50.5658
rradius 45.3859
rwrist 28.044
rhand -44.1234 49.0423
rfingers 7.12502
rthumb -16.94 19.7611
lclavicle -4.54347e-014 -2.71341e-014
lhumerus 97.0178 -1.15324 69.7714
lradius 15.543
lwrist -50.3543
lhand -50.5616 49.8905
lfingers 7.12502
lthumb -23.1281 78.5222
rfemur -23.0486 -5.57214 23.3085
rtibia 21.1642
rfoot -13.2066 -2.38588
rtoes -5.85905
lfemur 15.3156 1.37541 -13.9489
ltibia -2.54444e-014
lfoot 14.502 -0.486871
ltoes 40.1469
1143
root 24.3112 16.537 -5.67096 -167.254 39.1531 -180.767
lowerback -2.07626 -2.9281 0.0835728
upperback -0.434657 -3.90447 0.320143
thorax 0.733045 -1.95007 0.176187
lowerneck -20.2141 -0.881581 -5.38687
upperneck 3.92405 0.0780089 3.10897
head 4.37229 0.236413 1.85039
rclavicle -1.4884e-014 -1.09332e-014
rhumerus 77.2989 -6.3189 -50.7554
rradius 47.1137
rwrist 28.1908
rhand -44.8602 49.423
rfingers 7.12502
rthumb -17.6491 20.204
lclavicle -1.4884e-014 -1.09332e-014
lhumerus 97.3999 -1.60693 72.8733
lradius 15.1943
lwrist -52.357
lhand -50.8575 42.4434
lfingers 7.12502
lthumb -23.4119 71.0392
rfemur -22.9087 -5.08164 23.4103
rtibia 21.1612
rfoot -12.9805 -3.01851
rtoes -5.95821
lfemur 15.3349 1.23871 -13.6492
ltibia -1.90833e-014
lfoot 14.7214 -0.741389
ltoes 39.6082
1144
root 24.3095 16.5337 -5.6708 -167.153 38.979 -180.461
lowerback -1.97238 -2.9467 0.278447
upperback -0.354178 -3.93478 0.395498
thorax 0.749666 -1.9652 0.147285
lowerneck -19.3332 -0.800218 -5.39637
upperneck 3.42907 0.130514 3.23329
head 4.08301 0.266962 1.88998
rclavicle 2.76311e-014 2.44505e-014
rhumerus 77.031 -6.98413 -50.8194
rradius 49.0097
rwrist 28.3545
rhand -45.6255 49.9129
rfingers 7.12502
rthumb -18.3854 20.7618
lclavicle 2.76311e-014 2.44505e-014
lhumerus 97.5135 -0.932192 68.9869
lradius 16.6859
lwrist -45.372
lhand -50.3249 38.2307
lfingers 7.12502
lthumb -22.9009 66.8907
rfemur -22.7977 -5.04195 23.6878
rtibia 21.1687
rfoot -12.9146 -3.31503
rtoes -6.11015
lfemur 15.335 1.07689 -13.2787
ltibia 2.54444e-014
lfoot 15.0073 -0.692441
ltoes 39.8272
1145
root 24.3064 16.5318 -5.66999 -167.254 38.8412 -180.522
lowerback -1.88585 -2.93591 0.129453
upperback -0.283208 -3.91859 0.463635
thorax 0.788685 -1.95785 0.302155
lowerneck -18.5989 -0.695628 -4.91308
upperneck 3.1055 0.16064 2.70952
head 3.86982 0.252158 1.64684
rclavicle 4.72735e-014 8.24956e-015
rhumerus 76.9353 -7.84009 -51.3109
rradius 50.5357
rwrist 28.65
rhand -46.8455 50.2608
rfingers 7.12502
rthumb -19.5587 21.2246
lclavicle 4.72735e-014 8.24956e-015
lhumerus 97.2169 0.300815 63.3956
lradius 18.8563
lwrist -36.991
lhand -49.4273 31.4166
lfingers 7.12502
lthumb -22.0393 60.1808
rfemur -22.7355 -5.28374 23.6957
rtibia 21.1571
rfoot -12.9512 -3.30543
rtoes -5.89424
lfemur 15.3564 0.890493 -13.1979
ltibia 5.725e-014
lfoot 15.2017 -0.5831
ltoes 40.7456
1146
root 24.3063 16.5355 -5.66961 -167.371 38.6852 -180.727
lowerback -1.90563 -2.95454 -0.177607
upperback -0.170274 -3.93912 0.532611
thorax 0.941036 -1.96977 0.537002
lowerneck -17.3935 -0.666675 -4.84853
upperneck 2.22069 0.143125 2.62849
head 3.41424 0.242264 1.60291
rclavicle 8.57259e-015 -5.2181e-015
rhumerus 76.9252 -8.58069 -51.5381
rradius 52.3599
rwrist 29.005
rhand -47.7717 50.7422
rfingers 7.12502
rthumb -20.449 21.799
lclavicle 8.57259e-015 -5.2181e-015
lhumerus 97.9356 -1.04269 69.9068
lradius 18.0276
lwrist -41.8638
lhand -48.7699 23.3376
lfingers 7.12502
lthumb -21.408 52.1749
rfemur -22.7416 -5.27994 23.5146
rtibia 21.1388
rfoot -12.847 -3.43335
rtoes -5.45251
lfemur 15.3102 0.678069 -13.2586
ltibia -1.90833e-014
lfoot 15.165 -0.758624
ltoes 41.075
